<?xml version="1.0" encoding="UTF-8"?>
<svg width="50px" height="50px" viewBox="0 0 50 50" version="1.1" xmlns="http://www.w3.org/2000/svg" xmlns:xlink="http://www.w3.org/1999/xlink">
    <!-- Generator: Sketch 50.2 (55047) - http://www.bohemiancoding.com/sketch -->
    <title>noun_coffee takeaway_1203983</title>
    <desc>Created with Sketch.</desc>
    <defs></defs>
    <g id="Page-1" stroke="none" stroke-width="1" fill="none" fill-rule="evenodd">
        <g id="HD-Desktop" transform="translate(-269.000000, -2569.000000)">
            <g id="Table-Copy-2" transform="translate(199.000000, 2511.000000)">
                <g id="Group-2-Copy">
                    <g id="noun_coffee-takeaway_1203983" transform="translate(70.000000, 58.000000)">
                        <circle id="Oval-2" fill="#FFFFFF" cx="25" cy="25" r="25"></circle>
                        <g id="Group" transform="translate(12.000000, 11.000000)" fill="#777777" fill-rule="nonzero">
                            <path d="M14.7168054,15 C13.2631439,14.0923031 11.0535786,14.8298068 9.83250296,16.7019317 C8.61142736,18.5740566 8.72772028,20.8432989 10.1813817,21.7509959 C11.6350431,22.6586928 13.8446085,21.921189 15.0656841,20.0490641 C16.2867597,18.2336703 16.2286132,15.964428 14.7168054,15 Z M10.1813817,19.7654088 C10.0650888,19.0279051 10.2395282,18.1202082 10.7628463,17.3259734 C11.6931896,15.964428 13.3794368,15.2269242 14.3097802,16.1346212 C13.902755,17.0990491 13.2049975,17.6663597 12.3328006,17.8365529 C11.2861644,18.0634771 10.472114,18.6875188 10.1813817,19.7654088 Z M14.1353408,19.4250225 C13.2631439,20.7865679 11.5187502,21.5240716 10.5884069,20.6163747 C11.0535786,19.5384846 11.6931896,19.1980983 12.5653864,18.914443 C13.7283156,18.6307877 14.4842195,17.8365529 14.7168054,16.985587 C14.8912447,17.7798218 14.6005124,18.6875188 14.1353408,19.4250225 Z" id="Shape"></path>
                            <path d="M24.3109708,7.45476932 C24.3109708,6.37687922 23.4969204,5.4691823 22.4502842,5.24225807 L21.287355,2.12204989 C20.8221834,0.987428739 19.7755471,0.249924989 18.5544715,0.249924989 L6.34371554,0.249924989 C5.12263994,0.249924989 4.07600371,0.987428739 3.66897851,2.06531884 L2.50604937,5.18552701 C1.45941314,5.41245124 0.645362739,6.32014817 0.645362739,7.39803826 C0.645362739,8.64612153 1.63385251,9.61054952 2.91307457,9.66728057 L6.16927616,29.2962265 C6.22742262,29.5798818 6.46000845,29.750075 6.75074074,29.750075 L18.2055928,29.750075 C18.4963251,29.750075 18.7289109,29.5231508 18.7870574,29.2962265 L22.043259,9.66728057 C23.2643346,9.66728057 24.3109708,8.64612153 24.3109708,7.45476932 Z M19.9499865,15.1701932 L17.6822747,15.1701932 C16.577492,13.4115304 14.6005124,12.3336403 12.50724,12.3336403 C10.3558211,12.3336403 8.43698799,13.4115304 7.33220531,15.1701932 L5.06449348,15.1701932 L4.13415017,9.66728057 L20.9384763,9.66728057 L19.9499865,15.1701932 Z M18.7289109,22.3183064 L6.16927616,22.3183064 L5.18078639,16.3048143 L7.62293759,16.3048143 C7.85552342,16.3048143 8.02996279,16.1913522 8.14625571,16.021159 C9.01845256,14.4894205 10.7046998,13.4682614 12.50724,13.4682614 C14.3097802,13.4682614 15.9960274,14.4326894 16.8682243,16.021159 C16.9845172,16.1913522 17.1589566,16.3048143 17.3915424,16.3048143 L19.8336936,16.3048143 L19.6011078,17.2692423 L18.7289109,22.3183064 Z M4.71561474,2.46243624 C4.94820057,1.83839461 5.58781159,1.38454614 6.34371554,1.38454614 L18.5544715,1.38454614 C19.252229,1.38454614 19.9499865,1.83839461 20.1825723,2.46243624 L21.2292086,5.18552701 L3.66897851,5.18552701 L4.71561474,2.46243624 Z M1.75014542,7.45476932 C1.75014542,6.83072769 2.27346354,6.32014817 2.91307457,6.32014817 L21.9851125,6.32014817 C22.6247235,6.32014817 23.1480416,6.83072769 23.1480416,7.45476932 C23.1480416,8.07881096 22.6247235,8.58939048 21.9851125,8.58939048 L2.91307457,8.58939048 C2.27346354,8.53265942 1.75014542,8.07881096 1.75014542,7.45476932 Z M17.6822747,28.6154539 L7.21591239,28.6154539 L6.34371554,23.4529276 L18.5544715,23.4529276 L17.6822747,28.6154539 Z" id="Shape"></path>
                            <path d="M14.3679266,2.68936047 L10.5302604,2.68936047 C10.2395282,2.68936047 9.94879588,2.9162847 9.94879588,3.25667105 C9.94879588,3.5970574 10.1813817,3.82398163 10.5302604,3.82398163 L14.3679266,3.82398163 C14.6586589,3.82398163 14.9493912,3.5970574 14.9493912,3.25667105 C14.9493912,2.9162847 14.7168054,2.68936047 14.3679266,2.68936047 Z" id="Shape"></path>
                        </g>
                    </g>
                </g>
            </g>
        </g>
    </g>
</svg>