<?xml version="1.0" encoding="UTF-8"?>
<svg width="26px" height="26px" viewBox="0 0 26 26" version="1.1" xmlns="http://www.w3.org/2000/svg" xmlns:xlink="http://www.w3.org/1999/xlink">
    <!-- Generator: Sketch 50.2 (55047) - http://www.bohemiancoding.com/sketch -->
    <title>dribbble-icon</title>
    <desc>Created with Sketch.</desc>
    <defs></defs>
    <g id="Page-1" stroke="none" stroke-width="1" fill="none" fill-rule="evenodd">
        <g id="HD-Desktop" transform="translate(-981.000000, -3996.000000)" fill="#000000" fill-rule="nonzero">
            <g id="Bottom" transform="translate(0.000000, 3528.000000)">
                <g id="Group-3" transform="translate(199.000000, 106.000000)">
                    <g id="dribbble-icon" transform="translate(782.000000, 362.000000)">
                        <path d="M0,13 C0,10.642658 0.580684,8.467342 1.742,6.474 C2.903342,4.480658 4.480684,2.903342 6.474,1.742 C8.467342,0.580658 10.642684,0 13,0 C15.357342,0 17.532684,0.580658 19.526,1.742 C21.519342,2.903342 23.096684,4.480658 24.258,6.474 C25.419342,8.467342 26,10.642658 26,13 C26,15.357342 25.419342,17.532658 24.258,19.526 C23.096684,21.519342 21.519342,23.096658 19.526,24.258 C17.532684,25.419342 15.357342,26 13,26 C10.642684,26 8.467342,25.419342 6.474,24.258 C4.480684,23.096658 2.903342,21.519342 1.742,19.526 C0.580684,17.532658 0,15.357342 0,13 Z M2.158,13 C2.158,15.704 3.068,18.087342 4.888,20.15 C5.72,18.520658 7.037342,16.969342 8.84,15.496 C10.642684,14.022658 12.402,13.095342 14.118,12.714 C13.858,12.107342 13.606684,11.561342 13.364,11.076 C10.382684,12.029342 7.158684,12.506 3.692,12.506 C3.016,12.506 2.513342,12.497342 2.184,12.48 C2.184,12.549342 2.179684,12.636 2.171,12.74 C2.162342,12.844 2.158,12.930658 2.158,13 Z M2.496,10.322 C2.877342,10.356658 3.440684,10.374 4.186,10.374 C7.080684,10.374 9.828,9.984 12.428,9.204 C11.110684,6.864 9.663342,4.914 8.086,3.354 C6.716684,4.047342 5.542342,5.009342 4.563,6.24 C3.583684,7.470658 2.894684,8.831342 2.496,10.322 Z M6.37,21.554 C8.328684,23.079342 10.538684,23.842 13,23.842 C14.282684,23.842 15.556684,23.599342 16.822,23.114 C16.475342,20.15 15.799342,17.281342 14.794,14.508 C13.199342,14.854658 11.591684,15.73 9.971,17.134 C8.350342,18.538 7.15,20.011342 6.37,21.554 Z M10.348,2.522 C11.873342,4.099342 13.286,6.066658 14.586,8.424 C16.943342,7.436 18.72,6.179342 19.916,4.654 C17.905342,2.99 15.6,2.158 13,2.158 C12.116,2.158 11.232,2.279342 10.348,2.522 Z M15.522,10.27 C15.782,10.824658 16.076684,11.526658 16.406,12.376 C17.688684,12.254658 19.084,12.194 20.592,12.194 C21.666684,12.194 22.732684,12.22 23.79,12.272 C23.651342,9.914658 22.802,7.817342 21.242,5.98 C20.115342,7.661342 18.208684,9.091342 15.522,10.27 Z M17.056,14.196 C17.94,16.761342 18.538,19.396 18.85,22.1 C20.219342,21.216 21.337342,20.080658 22.204,18.694 C23.070684,17.307342 23.590684,15.808 23.764,14.196 C22.498684,14.109342 21.346,14.066 20.306,14.066 C19.352684,14.066 18.269342,14.109342 17.056,14.196 Z" id="Shape"></path>
                    </g>
                </g>
            </g>
        </g>
    </g>
</svg>