<svg id="Layer_1" data-name="Layer 1" xmlns="http://www.w3.org/2000/svg" viewBox="0 0 796.19 776.53"><defs><style>.cls-1{fill:#0f0c0d;fill-rule:evenodd;}</style></defs><title>github</title><path class="cls-1" d="M398.07,11C178.25,11,0,189.23,0,409.12,0,585,114.06,734.2,272.26,786.85c19.91,3.65,27.17-8.64,27.17-19.19,0-9.45-.34-34.49-.53-67.71C188.16,724,164.79,646.59,164.79,646.59c-18.1-46-44.2-58.24-44.2-58.24-36.14-24.7,2.74-24.2,2.74-24.2,40,2.82,61,41,61,41,35.51,60.84,93.17,43.27,115.85,33.08,3.62-25.73,13.9-43.27,25.28-53.22C237,575,144.1,540.84,144.1,388.29c0-43.46,15.51-79,41-106.83-4.09-10.07-17.75-50.55,3.9-105.35,0,0,33.43-10.71,109.48,40.81a377.3,377.3,0,0,1,199.32,0c76-51.52,109.37-40.81,109.37-40.81,21.72,54.8,8.05,95.28,4,105.35C636.63,309.29,652,344.83,652,388.29,652,541.22,559,574.87,470.27,584.73c14.29,12.29,27,36.58,27,73.72,0,53.22-.49,96.16-.49,109.21,0,10.64,7.17,23,27.37,19.14,158.05-52.74,272-201.86,272-377.68C796.19,189.23,617.94,11,398.07,11Z" transform="translate(0 -11)"/></svg>