<?xml version="1.0" encoding="UTF-8"?>
<svg width="50px" height="50px" viewBox="0 0 50 50" version="1.1" xmlns="http://www.w3.org/2000/svg" xmlns:xlink="http://www.w3.org/1999/xlink">
    <!-- Generator: Sketch 50.2 (55047) - http://www.bohemiancoding.com/sketch -->
    <title>Group</title>
    <desc>Created with Sketch.</desc>
    <defs></defs>
    <g id="Page-1" stroke="none" stroke-width="1" fill="none" fill-rule="evenodd">
        <g id="HD-Desktop" transform="translate(-269.000000, -3128.000000)">
            <g id="Table-Copy-2" transform="translate(199.000000, 2511.000000)">
                <g id="Group-2-Copy-4" transform="translate(0.000000, 560.000000)">
                    <g id="Group" transform="translate(70.000000, 57.000000)">
                        <circle id="Oval-2" fill="#FFFFFF" cx="25" cy="25" r="25"></circle>
                        <path d="M27.0748719,18.0004623 C26.7133289,18.0110668 26.3924764,18.2735968 26.2607134,18.6666283 L22.0681879,30.5484332 C21.9452037,30.8958996 21.9907057,31.2935711 22.1875035,31.59121 C22.3843013,31.8888488 22.7023921,32.0410785 23.0216032,31.9903877 C23.3408144,31.9396968 23.6124806,31.6938135 23.7339681,31.3456308 L27.9264936,19.4638434 C28.0481587,19.1347541 28.0173467,18.7559426 27.844797,18.4594424 C27.6722472,18.1629422 27.3818687,17.9898371 27.0748719,18.0004623 Z M16.9664022,20.0039407 C16.7819283,20.0219226 16.6059922,20.1014173 16.4600838,20.2327147 L11.377204,24.6251823 C11.1395823,24.8328133 11,25.1566248 11,25.5002428 C11,25.8438608 11.1395823,26.1676723 11.377204,26.3753033 L16.4600838,30.7677636 C16.7310447,31.011251 17.0947761,31.067839 17.4120782,30.9158715 C17.7293803,30.763904 17.9511273,30.4269091 17.9924568,30.0338545 C18.0337862,29.6407999 17.8882993,29.2525397 17.6116738,29.017661 L13.5414307,25.5059621 L17.6116738,21.9828246 C17.9553934,21.691417 18.0891203,21.1722785 17.9390318,20.7119951 C17.7889433,20.2517117 17.3916205,19.9624689 16.9664022,20.0039407 Z M32.9139706,20.001064 C32.5109587,20.0215723 32.1627859,20.3322192 32.0446166,20.7767196 C31.9264472,21.2212199 32.0638714,21.7033154 32.3877514,21.9804656 L36.4584119,25.5045248 L32.3877514,29.0171424 C32.1111019,29.2520826 31.9656024,29.6404443 32.0069354,30.0336017 C32.0482684,30.4267591 32.2700347,30.7638423 32.5873644,30.9158495 C32.9046941,31.0678568 33.2684571,31.0112539 33.5394415,30.7677028 L38.6227633,26.3740934 C38.8604055,26.1664081 39,25.8425119 39,25.498804 C39,25.1550961 38.8604055,24.8311999 38.6227633,24.6235146 L33.5394415,20.2298978 C33.3610243,20.0707117 33.1393913,19.9896254 32.9139706,20.001064 Z" id="Shape" fill="#777777" fill-rule="nonzero"></path>
                    </g>
                </g>
            </g>
        </g>
    </g>
</svg>