<?xml version="1.0" encoding="UTF-8"?>
<svg width="26px" height="26px" viewBox="0 0 26 26" version="1.1" xmlns="http://www.w3.org/2000/svg" xmlns:xlink="http://www.w3.org/1999/xlink">
    <!-- Generator: Sketch 51.1 (57501) - http://www.bohemiancoding.com/sketch -->
    <title>Shape</title>
    <desc>Created with Sketch.</desc>
    <defs></defs>
    <g id="Page-1" stroke="none" stroke-width="1" fill="none" fill-rule="evenodd">
        <g id="HD-Desktop" transform="translate(-935.000000, -3996.000000)" fill="#000000" fill-rule="nonzero">
            <g id="Bottom" transform="translate(0.000000, 3528.000000)">
                <g id="Group-3" transform="translate(199.000000, 113.000000)">
                    <g id="noun_instagram_38846" transform="translate(736.000000, 355.000000)">
                        <g id="Group">
                            <path d="M21.1952477,0.00763302752 L4.81333945,0.00763302752 C2.19211009,0.00763302752 0.0596330275,2.14726606 0.0596330275,4.77720183 L0.0596330275,21.2139725 C0.0596330275,23.8439083 2.19211009,25.9835413 4.81333945,25.9835413 L21.1951284,25.9835413 C23.8164771,25.9835413 25.9490734,23.8439083 25.9490734,21.2139725 L25.9490734,4.77720183 C25.9491927,2.14726606 23.8165963,0.00763302752 21.1952477,0.00763302752 Z M4.64565138,2.73059633 L4.64565138,5.70819266 C4.64565138,6.09926606 4.96158716,6.41627523 5.35134862,6.41627523 C5.74111009,6.41627523 6.05704587,6.09926606 6.05704587,5.70819266 L6.05704587,2.72200917 L6.66077064,2.72200917 L6.66077064,5.70819266 C6.66077064,6.09926606 6.97670642,6.41627523 7.36646789,6.41627523 C7.75622936,6.41627523 8.07216514,6.09926606 8.07216514,5.70819266 L8.07216514,2.72200917 L8.58095413,2.72200917 L8.58095413,5.70819266 C8.58095413,6.09926606 8.89700917,6.41627523 9.28665138,6.41627523 C9.67653211,6.41627523 9.99246789,6.09926606 9.99246789,5.70819266 L9.99246789,2.72200917 L21.1951284,2.72200917 C22.3248165,2.72200917 23.2436422,3.64393578 23.2436422,4.77720183 L23.2436422,10.5958349 L18.469422,10.5958349 C17.5098073,8.51607339 15.4112018,7.06901835 12.9806789,7.06901835 C10.5503945,7.06901835 8.45178899,8.51607339 7.49229358,10.5958349 L2.76494495,10.5958349 L2.76494495,4.77720183 C2.76494495,3.70082569 3.59455963,2.81670642 4.64565138,2.73059633 Z M16.0861284,13.1348899 C16.0861284,14.8526789 14.6931009,16.2502385 12.9807982,16.2502385 C11.2687339,16.2502385 9.87582569,14.8526789 9.87582569,13.1348899 C9.87582569,11.4169817 11.2687339,10.019422 12.9807982,10.019422 C14.6931009,10.019422 16.0861284,11.4169817 16.0861284,13.1348899 Z M21.1952477,23.2692844 L4.81333945,23.2692844 C3.68377064,23.2692844 2.76494495,22.3472385 2.76494495,21.2140917 L2.76494495,12.7202018 L6.95094495,12.7202018 C6.9416422,12.8573578 6.93520183,12.9954679 6.93520183,13.1350092 C6.93520183,16.4797064 9.64731193,19.2008807 12.9807982,19.2008807 C16.3146422,19.2008807 19.0267523,16.4797064 19.0267523,13.1350092 C19.0267523,12.9954679 19.0201927,12.8574771 19.0108899,12.7202018 L23.2436422,12.7202018 L23.2436422,21.2140917 C23.2437615,22.3471193 22.3249358,23.2692844 21.1952477,23.2692844 Z M18.5462294,8.27885321 L20.3848349,8.27885321 C20.8683394,8.27885321 21.2602477,7.88563303 21.2602477,7.40057798 L21.2602477,5.55600917 C21.2602477,5.07095413 20.8683394,4.67761468 20.3848349,4.67761468 L18.5462294,4.67761468 C18.062844,4.67761468 17.6708165,5.07083486 17.6708165,5.55600917 L17.6708165,7.40057798 C17.6708165,7.88563303 18.062844,8.27885321 18.5462294,8.27885321 Z" id="Shape"></path>
                        </g>
                    </g>
                </g>
            </g>
        </g>
    </g>
</svg>