<?xml version="1.0" encoding="UTF-8"?>
<svg width="50px" height="50px" viewBox="0 0 50 50" version="1.1" xmlns="http://www.w3.org/2000/svg" xmlns:xlink="http://www.w3.org/1999/xlink">
    <!-- Generator: Sketch 50.2 (55047) - http://www.bohemiancoding.com/sketch -->
    <title>noun_File_457319</title>
    <desc>Created with Sketch.</desc>
    <defs></defs>
    <g id="Page-1" stroke="none" stroke-width="1" fill="none" fill-rule="evenodd">
        <g id="HD-Desktop" transform="translate(-790.000000, -3128.000000)">
            <g id="Table-Copy" transform="translate(720.000000, 2511.000000)">
                <g id="Group-2-Copy-4" transform="translate(0.000000, 560.000000)">
                    <g id="noun_File_457319" transform="translate(70.000000, 57.000000)">
                        <circle id="Oval-2" fill="#FFFFFF" cx="25" cy="25" r="25"></circle>
                        <g id="Group" transform="translate(13.000000, 16.000000)" fill="#777777">
                            <path d="M7.59961155,0.00136167647 C5.21702812,0.00136167647 3.26508648,1.90269257 3.26508431,4.22325775 L3.26508431,6.23937778 L3.26508431,6.33420578 C3.26508431,7.52203624 2.31723157,8.44515382 1.09782069,8.44515382 C1.02533429,8.44497637 0.953012467,8.45188279 0.881941729,8.46576934 C0.481513377,8.53994431 0.157679488,8.82668843 0.0438197095,9.20789845 C0.0337223331,9.24046416 0.0252471103,9.27348626 0.0184237144,9.30684914 C-0.0411815418,9.61775558 0.0454844074,9.93831192 0.25457101,10.1803007 C0.463657614,10.4222896 0.773129859,10.5602084 1.09782069,10.5561019 C2.31723157,10.5561019 3.26508431,11.4794305 3.26508431,12.6670499 L3.26508431,12.7660006 L3.26508431,14.7779979 C3.26508431,17.0987742 5.21703029,18.999894 7.59961155,18.999894 C7.9904081,19.0052772 8.35390746,18.8052907 8.55091861,18.4765131 C8.74792976,18.1477355 8.74792976,17.7411044 8.55091861,17.4123269 C8.35390746,17.0835493 7.9904081,16.8835627 7.59961155,16.888946 C6.38020718,16.888946 5.43234793,15.9658284 5.43234793,14.7779979 L5.43234793,12.7660006 L5.43234793,12.6670499 C5.43234793,11.4040697 4.84074781,10.2764012 3.9296562,9.50062784 C4.84191814,8.72506553 5.4323501,7.59824147 5.43234793,6.33420578 L5.43234793,6.23937778 L5.43234793,4.22325775 C5.43234793,3.03563838 6.38020718,2.11230971 7.59961155,2.11230971 C7.9904081,2.11769294 8.35390746,1.91770638 8.55091861,1.5889288 C8.74792976,1.26015123 8.74792976,0.85352016 8.55091861,0.524742585 C8.35390746,0.195965011 7.9904081,-0.00402154663 7.59961155,0.00136167647 Z M18.2920103,0.00136167647 C17.6935798,0.0310166209 17.2331201,0.527546382 17.2635097,1.11042972 C17.2938993,1.69331306 17.803632,2.14185473 18.4020683,2.11230971 C19.6214705,2.11230971 20.5693319,3.03563838 20.5693319,4.22325775 L20.5693319,6.23937778 L20.5693319,6.33420578 C20.5693319,7.59824147 21.1597617,8.72485443 22.0720237,9.50062784 C21.1609321,10.2764012 20.5693298,11.4040697 20.5693319,12.6670499 L20.5693319,12.7660006 L20.5693319,14.7779979 C20.5693319,15.9658284 19.6214705,16.888946 18.4020683,16.888946 C18.0112718,16.8835627 17.6477724,17.0835493 17.4507613,17.4123269 C17.2537501,17.7411044 17.2537501,18.1477355 17.4507613,18.4765131 C17.6477724,18.8052907 18.0112718,19.0052772 18.4020683,18.999894 C20.7846496,18.999894 22.7365956,17.0987742 22.7365956,14.7779979 L22.7365956,12.7660006 L22.7365956,12.6670499 C22.7365956,11.4794305 23.6844461,10.5561019 24.9038592,10.5561019 C25.1597203,10.559691 25.4086325,10.4749815 25.6065251,10.3169716 C25.6346156,10.2935858 25.6614597,10.2688159 25.6869522,10.2427591 C25.9958928,9.93835847 26.085526,9.48237658 25.9138762,9.08835127 C25.7422265,8.69432596 25.3432778,8.44026809 24.9038592,8.44515382 C23.6844461,8.44515382 22.7365891,7.52203624 22.7365956,6.33420578 L22.7365956,6.23937778 L22.7365956,4.22325775 C22.7365956,1.90269257 20.7846496,0.00136167647 18.4020683,0.00136167647 C18.365406,-0.000453892156 18.3286727,-0.000453892156 18.2920103,0.00136167647 Z M13.0008399,9.48001443 L13.0008399,9.48825979 C11.8038933,9.48825979 10.8335763,10.4333634 10.8335763,11.5992078 C10.8331034,12.3606233 11.2536526,13.0632825 11.9341388,13.438042 L10.960565,15.3428412 C10.7686709,15.6823325 10.7832007,16.0969453 10.9984151,16.4229015 C11.2136294,16.7488577 11.5949177,16.9337374 11.9916654,16.9045104 C12.3884132,16.8752834 12.736816,16.63665 12.8992495,16.2828738 L14.5246972,13.0999589 C14.9145649,12.7231583 15.1430161,12.2162369 15.1638709,11.6816657 C15.1639398,11.6747947 15.1639398,11.6679232 15.1638709,11.6610523 C15.1656806,11.6377135 15.1670917,11.614347 15.1681036,11.5909625 C15.1681036,10.4251181 14.1977866,9.48001443 13.0008399,9.48001443 Z" id="Shape"></path>
                        </g>
                    </g>
                </g>
            </g>
        </g>
    </g>
</svg>