<?xml version="1.0" encoding="UTF-8"?>
<svg width="50px" height="50px" viewBox="0 0 50 50" version="1.1" xmlns="http://www.w3.org/2000/svg" xmlns:xlink="http://www.w3.org/1999/xlink">
    <!-- Generator: Sketch 50.2 (55047) - http://www.bohemiancoding.com/sketch -->
    <title>Paint Brush</title>
    <desc>Created with Sketch.</desc>
    <defs></defs>
    <g id="Page-1" stroke="none" stroke-width="1" fill="none" fill-rule="evenodd">
        <g id="HD-Desktop" transform="translate(-790.000000, -2828.000000)">
            <g id="Table-Copy" transform="translate(720.000000, 2511.000000)">
                <g id="Group-2-Copy-2" transform="translate(0.000000, 260.000000)">
                    <g id="Paint-Brush" transform="translate(70.000000, 57.000000)">
                        <circle id="Oval-2" fill="#FFFFFF" cx="25" cy="25" r="25"></circle>
                        <path d="M25,36 C25.5522919,36 26,36.4477234 26,37 C26,37.5522766 25.5522919,38 25,38 C24.4477081,38 24,37.5522766 24,37 C24,36.4477234 24.4477081,36 25,36 Z M25,35 C23.8972015,35 23,35.8972015 23,37 C23,38.1027985 23.8972015,39 25,39 C26.1027985,39 27,38.1027985 27,37 C27,35.8972015 26.1027985,35 25,35 Z" id="Shape" stroke="#777777" stroke-width="0.25" fill="#777777" fill-rule="nonzero"></path>
                        <path d="M34.9,20.8571429 L34.9,13.1071429 C34.9,12.49566 34.4075378,12 33.8,12 L16.2,12 C15.5925293,12 15.1,12.49566 15.1,13.1071429 L15.1,20.8571429 C14.4925293,20.8571429 14,21.3528029 14,21.9642857 L14,25.2857143 C14,25.8971296 14.4925293,26.3928571 15.1,26.3928571 C15.1,29.7142857 21.7,28.6071429 21.7,31.9285714 C21.7,33.0357143 20.6,35.25 20.6,37.4642857 C20.6,40.7857143 22.569983,43 25,43 C27.4300842,43 29.4,40.7857143 29.4,37.4642857 C29.4,35.25 28.3,33.0357143 28.3,31.9285714 C28.3,28.6071429 34.9,29.7142857 34.9,26.3928571 C35.5075378,26.3928571 36,25.8971296 36,25.2857143 L36,21.9642857 C36,21.3528029 35.5075378,20.8571429 34.9,20.8571429 Z M16.2,13.1071429 L17.3,13.1071429 L17.3,16.6130502 C17.3,16.9175415 17.5474732,17.1666216 17.85,17.1666216 C18.1525268,17.1666216 18.4,16.9175415 18.4,16.6130502 L18.4,13.1071429 L19.5,13.1071429 L19.5,15.3214286 C19.5,15.6258523 19.7474732,15.875 20.05,15.875 C20.3525268,15.875 20.6,15.6258523 20.6,15.3214286 L20.6,13.1071429 L21.7,13.1071429 L21.7,18.0892857 C21.7,18.3937095 21.9474732,18.6428571 22.25,18.6428571 C22.5525268,18.6428571 22.8,18.3937095 22.8,18.0892857 L22.8,13.1071429 L23.9,13.1071429 L23.9,14.0297394 C23.9,14.3342307 24.1474732,14.5833108 24.45,14.5833108 C24.7525268,14.5833108 25,14.3342307 25,14.0297394 L25,13.1071429 L33.8,13.1071429 L33.8,20.8571429 L16.2,20.8571429 L16.2,13.1071429 Z M31.2521546,28.1104017 C29.5420654,28.6841103 27.2,29.4698682 27.2,31.9285714 C27.2,32.5459333 27.4104797,33.2692522 27.6541931,34.1067047 C27.9569214,35.1469487 28.3,36.325991 28.3,37.4642857 C28.3,40.030365 26.9121765,41.8928571 25,41.8928571 C23.0878235,41.8928571 21.7,40.030365 21.7,37.4642857 C21.7,36.325991 22.0430786,35.1469487 22.3458069,34.1067047 C22.5895203,33.2692522 22.8,32.5459333 22.8,31.9285714 C22.8,29.4698682 20.4579346,28.6841103 18.7478454,28.1104017 C17.0159363,27.5293274 16.2,27.1704384 16.2,26.3928571 L33.8,26.3928571 C33.8,27.1704384 32.9840637,27.5293274 31.2521546,28.1104017 Z M34.9,25.2857143 L15.1,25.2857143 L15.1,21.9642857 L34.9,21.9642857 L34.9,25.2857143 Z" id="Shape" stroke="#777777" stroke-width="0.25" fill="#777777" fill-rule="nonzero"></path>
                        <path d="M34,23.5 C34,23.7749996 33.7468746,24 33.4375,24 L16.5625,24 C16.2531255,24 16,23.7749996 16,23.5 C16,23.2250004 16.2531255,23 16.5625,23 L33.4375,23 C33.7468746,23 34,23.2250004 34,23.5 Z" id="Shape" stroke="#777777" stroke-width="0.25" fill="#777777" fill-rule="nonzero"></path>
                    </g>
                </g>
            </g>
        </g>
    </g>
</svg>