<?xml version="1.0" encoding="UTF-8"?>
<svg width="154px" height="25px" viewBox="0 0 154 25" version="1.1" xmlns="http://www.w3.org/2000/svg" xmlns:xlink="http://www.w3.org/1999/xlink">
    <!-- Generator: Sketch 50.2 (55047) - http://www.bohemiancoding.com/sketch -->
    <title>Stefan Barcelo™</title>
    <desc>Created with Sketch.</desc>
    <defs></defs>
    <g id="Page-1" stroke="none" stroke-width="1" fill="none" fill-rule="evenodd">
        <g id="HD-Desktop" transform="translate(-375.000000, -36.000000)" fill="#FFD300">
            <g id="navigation-copy">
                <path d="M391.254,49.441 C391.254,51.358 390.606,52.708 388.743,54.436 C386.88,56.164 386.394,56.596 384.288,58.297 C382.182,57.217 380.751,56.569 379.239,56.569 C377.619,56.569 376.107,57.136 376.107,60.079 L376.053,60.079 L375.216,59.377 C375.702,56.245 377.754,53.626 380.265,53.626 C382.074,53.626 384.342,54.247 386.799,55.408 C387.825,54.274 388.662,53.302 388.662,51.763 C388.662,49.873 387.798,48.685 385.017,48.685 C384.504,48.685 384.018,48.685 383.586,48.712 C382.641,50.548 381.21,51.466 380.751,51.601 L379.833,50.845 L379.86,50.791 C380.724,50.845 382.155,49.765 382.749,48.766 C379.401,48.766 376.944,47.551 376.944,44.014 C376.944,41.287 379.428,39.343 382.857,37.669 C385.098,38.155 387.204,38.911 388.77,39.613 C389.148,39.1 389.769,38.371 390.282,37.912 L390.336,37.912 L390.714,38.587 C389.499,39.478 387.339,42.529 385.692,45.337 C389.391,45.58 391.254,46.903 391.254,49.441 Z M386.853,42.286 C384.666,40.747 382.29,39.91 380.643,39.64 C379.644,40.18 379.104,40.99 379.104,42.07 C379.104,44.419 380.238,45.337 383.748,45.337 C384.126,45.337 384.504,45.337 384.936,45.31 C385.341,44.635 386.421,42.934 386.853,42.286 Z M398.733,54.976 L399.138,55.354 L396.519,58 C395.466,57.325 393.9,56.407 392.901,55.921 L392.901,55.813 C393.252,55.597 393.36,55.165 393.36,54.517 L393.36,45.202 L392.226,45.202 L392.226,45.04 C393.684,44.095 395.169,41.557 395.925,39.559 L396.114,39.559 L396.114,43.636 L398.895,43.636 L398.193,45.202 L396.114,45.202 L396.114,54.706 C397.41,55.543 397.518,55.489 397.95,55.489 C398.166,55.489 398.409,55.354 398.517,55.219 L398.733,54.976 Z M408.048,47.281 C407.076,48.01 404.727,49.171 403.188,50.008 L403.188,54.139 C404.835,55.192 405.51,55.462 405.996,55.462 C406.185,55.462 406.374,55.354 406.563,55.165 L406.806,54.922 L407.211,55.354 C406.59,55.948 405.294,57.244 404.619,58 C403.458,57.271 401.325,56.056 399.948,55.381 L399.948,55.273 C400.272,55.03 400.407,54.787 400.407,53.95 L400.407,44.23 C401.811,43.852 403.674,43.069 405.267,42.043 C405.888,43.393 407.292,46.066 408.048,47.281 Z M405.645,48.01 C404.97,46.903 403.782,44.851 403.323,43.825 L403.188,43.852 L403.188,49.306 C404.025,48.901 405.078,48.388 405.645,48.01 Z M416.31,37.318 L416.391,37.399 L414.555,39.343 L414.528,39.343 C413.772,39.019 413.016,38.722 412.449,38.263 L412.395,38.29 L412.395,43.636 L415.662,43.636 L414.906,45.202 L412.395,45.202 L412.395,55.111 C413.178,55.462 413.421,55.57 413.691,55.57 C413.88,55.57 414.069,55.408 414.312,55.138 L414.501,54.922 L414.933,55.354 L412.26,58 C411.018,57.244 410.073,56.704 409.155,56.272 L409.155,56.137 C409.506,55.948 409.614,55.624 409.614,54.868 L409.614,45.202 L407.94,45.202 L408.723,43.636 L409.614,43.636 L409.614,39.424 C411.504,38.371 412.854,37.507 414.258,36.4 C415.662,37.345 416.013,37.399 416.31,37.318 Z M425.436,55.921 L425.49,56.002 C424.869,56.596 423.978,57.46 423.438,58 C422.574,57.325 421.467,56.542 420.927,56.164 L418.794,58 C418.038,57.379 416.823,56.488 415.878,55.867 L415.878,55.759 C416.175,55.57 416.337,55.327 416.337,54.409 L416.337,51.358 C417.309,50.899 418.146,50.44 418.74,50.062 C417.633,49.657 416.715,48.631 416.715,47.173 C416.715,45.283 417.633,44.419 418.47,43.42 C418.902,42.88 419.172,42.529 419.469,42.07 C420.765,42.637 423.033,43.69 424.518,44.23 L424.518,44.338 C424.194,44.581 424.059,44.932 424.059,45.607 L424.059,55.3 C424.302,55.543 425.139,56.029 425.436,55.921 Z M421.278,49.576 L421.278,45.715 C420.117,45.013 419.604,44.689 419.064,44.689 C418.578,44.689 417.363,45.04 417.363,47.173 C417.363,48.604 418.632,49.765 420.387,49.765 C420.63,49.765 420.954,49.684 421.278,49.576 Z M420.279,56.002 L421.278,55.138 L421.278,50.197 C420.981,50.305 420.684,50.386 420.36,50.386 C419.955,50.386 419.496,50.278 419.145,50.17 C419.01,50.413 418.956,50.818 418.956,51.304 L418.956,55.111 C419.415,55.408 419.766,55.705 420.279,56.002 Z M436.371,55.948 L436.425,56.002 C435.885,56.515 434.994,57.406 434.346,58.027 C433.671,57.514 432.321,56.569 431.754,56.191 L431.754,56.083 C432.024,55.921 432.213,55.597 432.213,54.787 L432.213,45.067 C431.727,44.689 431.268,44.419 430.836,44.122 C430.836,44.122 430.053,44.743 429.891,44.878 L429.891,55.462 C430.215,55.732 430.458,55.867 430.809,56.137 L430.809,56.164 C430.161,56.731 429.405,57.433 428.838,58 C428.028,57.379 427.164,56.704 426.651,56.326 L426.651,56.218 C426.894,56.029 427.11,55.732 427.11,54.841 L427.11,44.77 C426.597,44.365 426.111,44.176 425.76,44.149 L425.706,44.095 C426.489,43.366 427.083,42.799 427.758,42.07 C428.622,42.745 429.594,43.447 430.215,43.879 L430.242,43.879 L432.375,42.07 C433.266,42.691 434.481,43.528 435.453,44.122 L435.453,44.23 C435.156,44.446 434.994,44.743 434.994,45.31 L434.994,55.327 C435.426,55.651 436.047,55.975 436.371,55.948 Z M457.026,50.143 L457.026,52.438 C457.026,53.869 456.081,54.841 454.785,55.732 L450.897,58.405 C448.359,57.244 446.037,56.542 444.282,56.542 C442.311,56.542 440.934,57.325 440.934,59.863 L440.853,59.89 L440.259,59.377 C440.718,56.38 442.284,54.76 443.715,54.355 C443.958,53.869 444.174,53.194 444.174,51.709 L444.174,48.55 L443.796,48.55 C442.5,48.55 441.636,48.874 441.204,49.765 L440.961,49.657 C441.231,46.876 442.5,45.688 444.066,45.688 L444.174,45.688 L444.174,42.232 C442.203,40.801 441.717,40.423 440.988,40.423 C440.529,40.423 440.367,40.639 439.908,41.017 L439.584,40.639 L442.986,37.777 C444.066,38.614 445.794,39.829 447.198,40.828 L448.44,39.964 L448.44,39.613 C448.44,38.938 448.305,38.236 448.197,37.885 L448.197,37.831 L448.764,37.912 C448.845,38.236 448.926,38.911 448.926,39.424 L448.926,39.613 L451.491,37.804 C452.679,38.695 454.92,41.044 456.135,42.583 L452.301,45.31 C455.136,45.715 457.026,47.524 457.026,50.143 Z M448.926,47.011 L453.138,44.041 C452.247,42.772 450.465,40.801 449.304,39.964 L448.926,40.207 L448.926,47.011 Z M453.921,54.031 L453.921,50.872 C453.921,48.658 452.382,47.335 449.736,47.335 C449.439,47.335 449.142,47.443 448.926,47.578 L448.926,54.166 C450.438,54.544 452.085,55.3 453.516,56.029 L453.597,55.975 C453.867,55.543 453.921,55.3 453.921,54.031 Z M448.44,54.031 L448.44,40.558 L447.306,41.368 L447.306,50.359 C447.306,51.871 446.064,52.735 444.444,54.085 L444.471,54.139 C444.93,54.004 445.821,53.788 446.685,53.788 C447.171,53.788 447.9,53.923 448.44,54.031 Z M467.772,55.921 L467.826,56.002 C467.205,56.596 466.314,57.46 465.774,58 C464.91,57.325 463.803,56.542 463.263,56.164 L461.13,58 C460.374,57.379 459.159,56.488 458.214,55.867 L458.214,55.759 C458.511,55.57 458.673,55.327 458.673,54.409 L458.673,51.358 C459.645,50.899 460.482,50.44 461.076,50.062 C459.969,49.657 459.051,48.631 459.051,47.173 C459.051,45.283 459.969,44.419 460.806,43.42 C461.238,42.88 461.508,42.529 461.805,42.07 C463.101,42.637 465.369,43.69 466.854,44.23 L466.854,44.338 C466.53,44.581 466.395,44.932 466.395,45.607 L466.395,55.3 C466.638,55.543 467.475,56.029 467.772,55.921 Z M463.614,49.576 L463.614,45.715 C462.453,45.013 461.94,44.689 461.4,44.689 C460.914,44.689 459.699,45.04 459.699,47.173 C459.699,48.604 460.968,49.765 462.723,49.765 C462.966,49.765 463.29,49.684 463.614,49.576 Z M462.615,56.002 L463.614,55.138 L463.614,50.197 C463.317,50.305 463.02,50.386 462.696,50.386 C462.291,50.386 461.832,50.278 461.481,50.17 C461.346,50.413 461.292,50.818 461.292,51.304 L461.292,55.111 C461.751,55.408 462.102,55.705 462.615,56.002 Z M476.628,45.067 C476.088,45.607 475.413,46.498 474.9,47.2 L474.792,47.2 C474.117,46.471 473.118,45.013 472.794,44.23 L472.227,44.824 L472.227,54.652 C473.523,55.462 473.766,55.57 474.171,55.57 C474.36,55.57 474.522,55.408 474.684,55.219 L474.927,54.949 L475.386,55.354 C473.793,56.947 472.767,58 472.767,58 C471.633,57.244 470.391,56.569 468.987,55.894 L468.987,55.786 C469.284,55.516 469.446,55.273 469.446,54.436 L469.446,44.77 C468.879,44.338 468.501,44.176 468.096,44.149 L468.042,44.068 C468.663,43.501 469.473,42.772 470.094,42.07 C470.85,42.691 471.66,43.42 472.335,43.96 C473.28,43.15 473.577,42.826 474.36,42.07 C474.873,42.88 475.791,44.176 476.628,45.067 Z M485.592,43.906 L485.646,43.987 C485.16,44.446 484.107,45.607 483.675,46.039 L483.648,46.039 C482.865,45.634 481.704,44.77 480.921,43.906 L480.813,43.96 L480.813,54.139 C482.46,55.219 483.351,55.435 483.891,55.435 C484.134,55.435 484.323,55.327 484.431,55.219 L484.674,54.949 L485.106,55.354 C484.377,56.056 483.351,57.109 482.487,58 C481.515,57.379 478.815,55.975 477.573,55.381 L477.573,55.273 C477.816,55.111 478.032,54.895 478.032,54.166 L478.032,45.067 C479.382,44.338 481.164,43.231 482.676,42.07 C484.755,43.987 485.322,43.987 485.592,43.906 Z M494.61,47.281 C493.638,48.01 491.289,49.171 489.75,50.008 L489.75,54.139 C491.397,55.192 492.072,55.462 492.558,55.462 C492.747,55.462 492.936,55.354 493.125,55.165 L493.368,54.922 L493.773,55.354 C493.152,55.948 491.856,57.244 491.181,58 C490.02,57.271 487.887,56.056 486.51,55.381 L486.51,55.273 C486.834,55.03 486.969,54.787 486.969,53.95 L486.969,44.23 C488.373,43.852 490.236,43.069 491.829,42.043 C492.45,43.393 493.854,46.066 494.61,47.281 Z M492.207,48.01 C491.532,46.903 490.344,44.851 489.885,43.825 L489.75,43.852 L489.75,49.306 C490.587,48.901 491.64,48.388 492.207,48.01 Z M500.037,55.921 L500.091,55.975 C499.551,56.488 498.66,57.379 498.012,58 C497.229,57.406 496.122,56.65 495.42,56.191 L495.42,56.083 C495.744,55.948 495.879,55.597 495.879,54.787 L495.879,38.776 C495.879,38.128 495.825,37.696 495.609,37.399 L495.717,37.345 C496.095,37.453 496.635,37.885 496.851,38.452 L496.905,38.452 C497.256,37.534 498.066,36.67 499.011,36.4 L499.092,36.454 C498.876,36.832 498.66,37.318 498.66,38.263 L498.66,55.3 C499.092,55.624 499.713,55.948 500.037,55.921 Z M509.811,44.284 L509.811,44.392 C509.568,44.581 509.352,44.824 509.352,45.607 L509.352,55.003 C508.11,55.705 506.166,56.92 504.708,58 C503.52,57.19 502.143,56.326 501.009,55.678 L501.009,55.57 C501.333,55.435 501.468,55.084 501.468,54.517 L501.468,45.04 C502.845,44.257 504.708,43.069 506.112,42.043 C507.246,42.772 508.65,43.663 509.811,44.284 Z M506.517,56.11 L506.571,56.056 L506.571,45.364 C505.95,44.932 505.032,44.365 504.33,43.96 L504.249,43.987 L504.249,54.679 C504.843,55.111 505.896,55.759 506.517,56.11 Z M528.684,45.958 L528.684,46.714 L525.957,46.714 L525.957,45.958 L526.47,45.958 C526.659,45.958 526.74,45.877 526.74,45.688 L526.74,40.477 L524.634,45.769 C524.553,45.985 524.445,46.417 524.391,46.714 L523.77,46.714 L521.421,40.693 L521.421,45.688 C521.421,45.877 521.529,45.958 521.745,45.958 L522.15,45.958 L522.15,46.714 L519.882,46.714 L519.882,45.958 L520.287,45.958 C520.476,45.958 520.53,45.877 520.53,45.688 L520.53,39.937 C520.53,39.721 520.449,39.667 520.26,39.667 L519.882,39.667 L519.882,38.911 L522.069,38.911 L524.256,44.581 L526.443,38.911 L528.684,38.911 L528.684,39.667 L528.279,39.667 C528.09,39.667 527.982,39.721 527.982,39.937 L527.982,45.688 C527.982,45.904 528.117,45.958 528.306,45.958 L528.684,45.958 Z M519.099,38.911 L519.153,40.99 L518.397,40.99 C518.262,39.964 518.073,39.721 517.506,39.721 L516.264,39.721 L516.264,45.688 C516.264,45.877 516.345,45.958 516.534,45.958 L517.02,45.958 L517.02,46.714 L514.239,46.714 L514.239,45.958 L514.752,45.958 C514.968,45.958 515.022,45.904 515.022,45.688 L515.022,39.721 L513.807,39.721 C513.132,39.721 513.024,40.018 512.862,40.99 L512.106,40.99 L512.16,38.911 L519.099,38.911 Z" id="Stefan-Barcelo™"></path>
            </g>
        </g>
    </g>
</svg>