<?xml version="1.0" encoding="UTF-8"?>
<svg width="296px" height="125px" viewBox="0 0 296 125" version="1.1" xmlns="http://www.w3.org/2000/svg" xmlns:xlink="http://www.w3.org/1999/xlink">
    <!-- Generator: Sketch 50.2 (55047) - http://www.bohemiancoding.com/sketch -->
    <title>SB™</title>
    <desc>Created with Sketch.</desc>
    <defs></defs>
    <g id="Page-1" stroke="none" stroke-width="1" fill="none" fill-rule="evenodd">
        <g id="HD-Desktop" transform="translate(-936.000000, -3667.000000)" fill="#000000">
            <g id="Bottom" transform="translate(0.000000, 3528.000000)">
                <g id="Group-3" transform="translate(199.000000, 106.000000)">
                    <path d="M826.3,98.45 C826.3,109.1 822.7,116.6 812.35,126.2 C802,135.8 799.3,138.2 787.6,147.65 C775.9,141.65 767.95,138.05 759.55,138.05 C750.55,138.05 742.15,141.2 742.15,157.55 L741.85,157.55 L737.2,153.65 C739.9,136.25 751.3,121.7 765.25,121.7 C775.3,121.7 787.9,125.15 801.55,131.6 C807.25,125.3 811.9,119.9 811.9,111.35 C811.9,100.85 807.1,94.25 791.65,94.25 C788.8,94.25 786.1,94.25 783.7,94.4 C778.45,104.6 770.5,109.7 767.95,110.45 L762.85,106.25 L763,105.95 C767.8,106.25 775.75,100.25 779.05,94.7 C760.45,94.7 746.8,87.95 746.8,68.3 C746.8,53.15 760.6,42.35 779.65,33.05 C792.1,35.75 803.8,39.95 812.5,43.85 C814.6,41 818.05,36.95 820.9,34.4 L821.2,34.4 L823.3,38.15 C816.55,43.1 804.55,60.05 795.4,75.65 C815.95,77 826.3,84.35 826.3,98.45 Z M801.85,58.7 C789.7,50.15 776.5,45.5 767.35,44 C761.8,47 758.8,51.5 758.8,57.5 C758.8,70.55 765.1,75.65 784.6,75.65 C786.7,75.65 788.8,75.65 791.2,75.5 C793.45,71.75 799.45,62.3 801.85,58.7 Z M926.714583,102.35 L926.714583,115.1 C926.714583,123.05 921.464583,128.45 914.264583,133.4 L892.664583,148.25 C878.564583,141.8 865.664583,137.9 855.914583,137.9 C844.964583,137.9 837.314583,142.25 837.314583,156.35 L836.864583,156.5 L833.564583,153.65 C836.114583,137 844.814583,128 852.764583,125.75 C854.114583,123.05 855.314583,119.3 855.314583,111.05 L855.314583,93.5 L853.214583,93.5 C846.014583,93.5 841.214583,95.3 838.814583,100.25 L837.464583,99.65 C838.964583,84.2 846.014583,77.6 854.714583,77.6 L855.314583,77.6 L855.314583,58.4 C844.364583,50.45 841.664583,48.35 837.614583,48.35 C835.064583,48.35 834.164583,49.55 831.614583,51.65 L829.814583,49.55 L848.714583,33.65 C854.714583,38.3 864.314583,45.05 872.114583,50.6 L879.014583,45.8 L879.014583,43.85 C879.014583,40.1 878.264583,36.2 877.664583,34.25 L877.664583,33.95 L880.814583,34.4 C881.264583,36.2 881.714583,39.95 881.714583,42.8 L881.714583,43.85 L895.964583,33.8 C902.564583,38.75 915.014583,51.8 921.764583,60.35 L900.464583,75.5 C916.214583,77.75 926.714583,87.8 926.714583,102.35 Z M881.714583,84.95 L905.114583,68.45 C900.164583,61.4 890.264583,50.45 883.814583,45.8 L881.714583,47.15 L881.714583,84.95 Z M909.464583,123.95 L909.464583,106.4 C909.464583,94.1 900.914583,86.75 886.214583,86.75 C884.564583,86.75 882.914583,87.35 881.714583,88.1 L881.714583,124.7 C890.114583,126.8 899.264583,131 907.214583,135.05 L907.664583,134.75 C909.164583,132.35 909.464583,131 909.464583,123.95 Z M879.014583,123.95 L879.014583,49.1 L872.714583,53.6 L872.714583,103.55 C872.714583,111.95 865.814583,116.75 856.814583,124.25 L856.964583,124.55 C859.514583,123.8 864.464583,122.6 869.264583,122.6 C871.964583,122.6 876.014583,123.35 879.014583,123.95 Z M1032.82917,79.1 L1032.82917,83.3 L1017.67917,83.3 L1017.67917,79.1 L1020.52917,79.1 C1021.57917,79.1 1022.02917,78.65 1022.02917,77.6 L1022.02917,48.65 L1010.32917,78.05 C1009.87917,79.25 1009.27917,81.65 1008.97917,83.3 L1005.52917,83.3 L992.479167,49.85 L992.479167,77.6 C992.479167,78.65 993.079167,79.1 994.279167,79.1 L996.529167,79.1 L996.529167,83.3 L983.929167,83.3 L983.929167,79.1 L986.179167,79.1 C987.229167,79.1 987.529167,78.65 987.529167,77.6 L987.529167,45.65 C987.529167,44.45 987.079167,44.15 986.029167,44.15 L983.929167,44.15 L983.929167,39.95 L996.079167,39.95 L1008.22917,71.45 L1020.37917,39.95 L1032.82917,39.95 L1032.82917,44.15 L1030.57917,44.15 C1029.52917,44.15 1028.92917,44.45 1028.92917,45.65 L1028.92917,77.6 C1028.92917,78.8 1029.67917,79.1 1030.72917,79.1 L1032.82917,79.1 Z M979.579167,39.95 L979.879167,51.5 L975.679167,51.5 C974.929167,45.8 973.879167,44.45 970.729167,44.45 L963.829167,44.45 L963.829167,77.6 C963.829167,78.65 964.279167,79.1 965.329167,79.1 L968.029167,79.1 L968.029167,83.3 L952.579167,83.3 L952.579167,79.1 L955.429167,79.1 C956.629167,79.1 956.929167,78.8 956.929167,77.6 L956.929167,44.45 L950.179167,44.45 C946.429167,44.45 945.829167,46.1 944.929167,51.5 L940.729167,51.5 L941.029167,39.95 L979.579167,39.95 Z" id="SB™"></path>
                </g>
            </g>
        </g>
    </g>
</svg>