<?xml version="1.0" encoding="UTF-8"?>
<svg width="50px" height="50px" viewBox="0 0 50 50" version="1.1" xmlns="http://www.w3.org/2000/svg" xmlns:xlink="http://www.w3.org/1999/xlink">
    <!-- Generator: Sketch 50.2 (55047) - http://www.bohemiancoding.com/sketch -->
    <title>Styletile icon</title>
    <desc>Created with Sketch.</desc>
    <defs></defs>
    <g id="Page-1" stroke="none" stroke-width="1" fill="none" fill-rule="evenodd">
        <g id="HD-Desktop" transform="translate(-269.000000, -2828.000000)">
            <g id="Table-Copy-2" transform="translate(199.000000, 2511.000000)">
                <g id="Group-2-Copy-2" transform="translate(0.000000, 260.000000)">
                    <g id="Styletile-icon" transform="translate(70.000000, 57.000000)">
                        <circle id="Oval-2" fill="#FFFFFF" cx="25" cy="25" r="25"></circle>
                        <g id="noun_design_1502687" transform="translate(14.000000, 14.000000)" fill="#777777" fill-rule="nonzero" stroke="#777777" stroke-width="0.25">
                            <path d="M18.6557174,6.666 C18.574279,6.53568676 18.4573357,6.43137109 18.3186542,6.36533333 L18.3186542,4.03333333 C18.3186542,1.80578484 16.5143152,3.25665421e-16 14.2885503,3.25665421e-16 C12.0627853,1.6283271e-16 10.2584463,1.80578484 10.2584463,4.03333333 L10.2584463,18.3333333 C10.2584463,19.9533686 8.9461998,21.2666667 7.32746167,21.2666667 C5.70872353,21.2666667 4.396477,19.9533686 4.396477,18.3333333 L4.396477,16.5953333 L8.01257933,10.0796667 L8.01257933,10.054 L8.01257933,10.0246667 C8.03502491,9.9859324 8.05110603,9.94384039 8.06020783,9.9 L8.06020783,0.366666667 C8.06020783,0.164162258 7.89617702,0 7.69383475,0 L0.366373083,0 C0.164030817,0 0,0.164162258 0,0.366666667 L0,9.9 C0.00286027485,9.94014276 0.0114981294,9.97966174 0.0256461158,10.0173333 L0.0256461158,10.0466667 L0.0256461158,10.0723333 L3.66373083,16.5953333 L3.66373083,18.3333333 C3.66373083,20.3583774 5.304039,22 7.32746167,22 C9.35088433,22 10.9911925,20.3583774 10.9911925,18.3333333 L10.9911925,4.03333333 C10.9911925,2.21079366 12.4674699,0.733333333 14.2885503,0.733333333 C16.1096307,0.733333333 17.585908,2.21079366 17.585908,4.03333333 L17.585908,6.36533333 C17.4472265,6.43137109 17.3302831,6.53568676 17.2488448,6.666 L13.9771331,11.9056667 C13.921104,11.9968905 13.9077198,12.1080681 13.9404958,12.21 L15.6294757,17.6256667 C15.4856655,17.6776918 15.3892667,17.8136352 15.3876695,17.9666667 L15.3876695,21.6333333 C15.3876695,21.8358377 15.5517003,22 15.7540426,22 L20.1505196,22 C20.3528619,22 20.5168927,21.8358377 20.5168927,21.6333333 L20.5168927,17.9666667 C20.5152954,17.8136352 20.4188967,17.6776918 20.2750864,17.6256667 L21.982385,12.21 C22.015161,12.1080681 22.0017768,11.9968905 21.9457477,11.9056667 L18.6557174,6.666 Z M6.22834242,0.733333333 L7.32746167,0.733333333 L7.32746167,9.53333333 L6.22834242,9.53333333 L6.22834242,0.733333333 Z M4.396477,0.733333333 L5.49559625,0.733333333 L5.49559625,9.53333333 L4.396477,9.53333333 L4.396477,0.733333333 Z M2.56461158,0.733333333 L3.66373083,0.733333333 L3.66373083,9.53333333 L2.56461158,9.53333333 L2.56461158,0.733333333 Z M0.732746167,0.733333333 L1.83186542,0.733333333 L1.83186542,9.53333333 L0.732746167,9.53333333 L0.732746167,0.733333333 Z M0.989207325,10.2666667 L7.07100051,10.2666667 L5.23913509,13.5666667 L2.82107274,13.5666667 L0.989207325,10.2666667 Z M3.22774686,14.3 L4.83246097,14.3 L4.03010392,15.7446667 L3.22774686,14.3 Z M17.9522811,11.7333333 C18.1546234,11.7333333 18.3186542,11.8974956 18.3186542,12.1 C18.3186542,12.3025044 18.1546234,12.4666667 17.9522811,12.4666667 C17.7499388,12.4666667 17.585908,12.3025044 17.585908,12.1 C17.585908,11.8974956 17.7499388,11.7333333 17.9522811,11.7333333 Z M19.7841465,21.2666667 L16.1204157,21.2666667 L16.1204157,18.3333333 L19.7841465,18.3333333 L19.7841465,21.2666667 Z M19.5130304,17.6 L16.3915317,17.6 L14.6878969,12.1513333 L17.585908,7.513 L17.585908,11.066 C17.081212,11.24458 16.7784686,11.7610776 16.8689907,12.2891021 C16.9595129,12.8171266 17.4169701,13.2030899 17.9522811,13.2030899 C18.4875921,13.2030899 18.9450493,12.8171266 19.0355714,12.2891021 C19.1260936,11.7610776 18.8233502,11.24458 18.3186542,11.066 L18.3186542,7.513 L21.2166653,12.1513333 L19.5130304,17.6 Z" id="Shape"></path>
                        </g>
                    </g>
                </g>
            </g>
        </g>
    </g>
</svg>