<?xml version="1.0" encoding="UTF-8"?>
<svg width="50px" height="50px" viewBox="0 0 50 50" version="1.1" xmlns="http://www.w3.org/2000/svg" xmlns:xlink="http://www.w3.org/1999/xlink">
    <!-- Generator: Sketch 50.2 (55047) - http://www.bohemiancoding.com/sketch -->
    <title>Pencil Icon</title>
    <desc>Created with Sketch.</desc>
    <defs></defs>
    <g id="Page-1" stroke="none" stroke-width="1" fill="none" fill-rule="evenodd">
        <g id="HD-Desktop" transform="translate(-790.000000, -2569.000000)">
            <g id="Table-Copy" transform="translate(720.000000, 2511.000000)">
                <g id="Group-2-Copy">
                    <g id="Pencil-Icon" transform="translate(70.000000, 58.000000)">
                        <circle id="Oval-2" fill="#FFFFFF" cx="25" cy="25" r="25"></circle>
                        <g id="noun_Pencil_968432" transform="translate(12.000000, 11.000000)" fill="#777777" fill-rule="nonzero">
                            <path d="M22.7775366,4.01409382e-07 C22.3084435,0.000302135703 21.8413469,0.170574781 21.5005712,0.511534412 L19.8112997,2.20171789 L18.0890448,3.92490361 L2.73246369,19.2874223 C2.69989398,19.3200096 2.68355255,19.3595935 2.65942683,19.3982155 C2.52673542,19.4706317 2.42024308,19.5914003 2.37199166,19.7470952 L0.0277452518,27.2150189 C-0.0398067403,27.4298537 0.0180949672,27.6662445 0.178530949,27.8255602 C0.293128078,27.9390123 0.445798596,28 0.602615721,28 C0.66534257,28 0.728427566,27.9910723 0.788741845,27.9717118 L8.35629852,25.5177635 C8.47572079,25.4791415 8.56900044,25.4008958 8.64137757,25.307964 C8.66188443,25.2922739 8.68569047,25.284844 8.70499104,25.265533 L24.0592151,9.90301382 L27.4707427,6.48728772 C28.1764197,5.77881572 28.1764185,4.63096198 27.4707427,3.92490361 L24.0592151,0.511534412 C23.7178362,0.169367723 23.2466309,-0.000301212191 22.7775366,4.01409382e-07 Z M22.7775366,1.19515111 C22.9337518,1.19515111 23.0917378,1.25082109 23.2063338,1.36487665 L26.6178602,4.77824585 C26.8530858,5.0135986 26.8530846,5.39623546 26.6178602,5.63158821 L25.3550299,6.89510056 L21.0906223,2.62838901 L22.3534525,1.36487665 C22.4668433,1.25082109 22.6213227,1.19515111 22.7775366,1.19515111 Z M20.237741,3.48173137 L24.5021486,7.74844268 L23.632775,8.62064307 L21.5005712,6.48493045 L19.3660115,4.353932 L20.237741,3.48173137 Z M18.513129,5.20727436 L19.3660115,6.0606166 L5.52906719,19.905035 L4.1413676,19.5844423 L18.513129,5.20727436 Z M20.2188928,6.91395896 L20.6476899,7.34063008 L21.0741299,7.76730108 L7.23718638,21.6093618 L6.32304809,21.6470786 L6.32304809,20.8173093 L20.2188928,6.91395896 Z M21.9246553,8.62064307 L22.7775366,9.47398628 L8.50001659,23.7592186 L8.16310464,22.3872702 L21.9246553,8.62064307 Z M3.35445469,20.6405123 L5.11676252,21.0483243 L5.11676252,22.2741199 C5.11676252,22.4382633 5.18231702,22.5979761 5.30053252,22.7102213 C5.41874863,22.8248791 5.5854421,22.8812093 5.74346563,22.8775885 L7.02750005,22.8257288 L7.45158434,24.5394842 L4.59372469,25.4659038 C4.56477372,25.3850391 4.52221476,25.3082851 4.45707509,25.2443174 L2.7513119,23.5376322 C2.67652219,23.4628021 2.5874456,23.419245 2.49214892,23.3914806 L3.35445469,20.6405123 Z M2.11047269,24.603132 L3.3709469,25.8642873 L1.52617811,26.4606832 L2.11047269,24.603132 Z" id="Shape"></path>
                        </g>
                    </g>
                </g>
            </g>
        </g>
    </g>
</svg>